STARTFONT 2.1
FONT -Monotype-Courier-Regular-R-Normal--36-360-75-75-M-162-iso8859-2
SIZE 36 75 75
FONTBOUNDINGBOX 27 40 -2 -9

STARTPROPERTIES 24
FOUNDRY "Monotype"
FAMILY_NAME "Courier"
WEIGHT_NAME "Regular"
SLANT "R"
SETWIDTH_NAME "Normal"
ADD_STYLE_NAME ""
PIXEL_SIZE 36
POINT_SIZE 360
RESOLUTION_X 75
RESOLUTION_Y 75
SPACING "M"
AVERAGE_WIDTH 162
CHARSET_REGISTRY "iso8859"
CHARSET_ENCODING "2"
FACE_NAME "Courier ISO Latin2"
_DEC_DEVICE_FONTNAMES "PS=courier-lat2"
COPYRIGHT "Copyright (c) 1993 Monotype Typography Ltd."
CAP_HEIGHT 22
X_HEIGHT 16
WEIGHT 10
QUAD_WIDTH 23
DEFAULT_CHAR 160
FONT_DESCENT 9
FONT_ASCENT 31
ENDPROPERTIES

CHARS 191

STARTCHAR space
ENCODING 32
SWIDTH 600 0
DWIDTH 23 0
BBX 0 0 0 0
BITMAP
ENDCHAR

STARTCHAR exclam
ENCODING 33
SWIDTH 600 0
DWIDTH 23 0
BBX 5 24 9 0
BITMAP
70
70
70
70
70
70
70
70
70
70
70
20
20
20
20
20
00
00
00
00
70
F8
F8
70
ENDCHAR

STARTCHAR quotedbl
ENCODING 34
SWIDTH 600 0
DWIDTH 23 0
BBX 13 10 5 14
BITMAP
F8F8
F8F8
F0F0
F0F0
7070
7070
7070
7070
7070
6060
ENDCHAR

STARTCHAR numbersign
ENCODING 35
SWIDTH 600 0
DWIDTH 23 0
BBX 16 26 3 -2
BITMAP
0318
0210
0210
0210
0210
0210
0210
0630
0630
7FFF
3FFF
0630
0630
0630
0630
FFFF
7FFE
0420
0420
0420
0C20
0C20
0C60
0C60
0C60
0C60
ENDCHAR

STARTCHAR dollar
ENCODING 36
SWIDTH 600 0
DWIDTH 23 0
BBX 15 28 4 -3
BITMAP
0180
0180
01C0
0FF4
1C1C
300C
2004
6000
6000
6000
3000
1F00
03F0
0038
000C
0006
0006
C006
C006
E00C
F838
DFF0
0180
0180
0180
0180
0180
0180
ENDCHAR

STARTCHAR percent
ENCODING 37
SWIDTH 600 0
DWIDTH 23 0
BBX 16 24 3 0
BITMAP
0F00
3180
20C0
4040
4040
4040
4040
20C0
3180
0F01
000E
0078
03C0
1E00
F000
00F8
018C
0306
0202
0202
0202
0306
018C
00F0
ENDCHAR

STARTCHAR ampersand
ENCODING 38
SWIDTH 600 0
DWIDTH 23 0
BBX 14 21 5 0
BITMAP
0780
0FE0
1840
1000
3000
3000
1000
1800
0800
0C00
3C00
761C
631C
C318
C1B0
C0B0
C060
40E0
61E0
3FBC
0E1C
ENDCHAR

STARTCHAR quoteright
ENCODING 39
SWIDTH 600 0
DWIDTH 23 0
BBX 8 11 5 12
BITMAP
1F
1E
3E
3C
3C
38
78
70
70
E0
40
ENDCHAR

STARTCHAR parenleft
ENCODING 40
SWIDTH 600 0
DWIDTH 23 0
BBX 6 28 11 -4
BITMAP
04
0C
18
18
30
30
70
60
60
E0
E0
C0
C0
C0
C0
C0
C0
E0
E0
60
60
70
30
30
18
18
0C
04
ENDCHAR

STARTCHAR parenright
ENCODING 41
SWIDTH 600 0
DWIDTH 23 0
BBX 6 28 6 -4
BITMAP
80
C0
60
60
30
30
18
18
18
1C
0C
0C
0C
0C
0C
0C
0C
0C
1C
18
18
38
30
30
60
60
C0
80
ENDCHAR

STARTCHAR asterisk
ENCODING 42
SWIDTH 600 0
DWIDTH 23 0
BBX 14 13 4 10
BITMAP
0300
0300
0300
0300
830C
FB7C
3FF0
0300
0680
0CC0
0CC0
1860
3030
ENDCHAR

STARTCHAR plus
ENCODING 43
SWIDTH 600 0
DWIDTH 23 0
BBX 18 20 2 1
BITMAP
004000
00C000
00C000
00C000
00C000
00C000
00C000
00C000
00C000
FFFFC0
7FFFC0
00C000
00C000
00C000
00C000
00C000
00C000
00C000
00C000
004000
ENDCHAR

STARTCHAR comma
ENCODING 44
SWIDTH 600 0
DWIDTH 23 0
BBX 7 12 6 -6
BITMAP
3E
3E
3C
7C
78
78
70
F0
E0
C0
C0
40
ENDCHAR

STARTCHAR minus
ENCODING 45
SWIDTH 600 0
DWIDTH 23 0
BBX 17 2 3 10
BITMAP
FFFF80
FFFF80
ENDCHAR

STARTCHAR period
ENCODING 46
SWIDTH 600 0
DWIDTH 23 0
BBX 6 5 8 0
BITMAP
78
FC
FC
FC
78
ENDCHAR

STARTCHAR slash
ENCODING 47
SWIDTH 600 0
DWIDTH 23 0
BBX 15 29 4 -3
BITMAP
0006
0004
000C
0008
0018
0018
0030
0030
0060
0060
00C0
00C0
0080
0180
0100
0300
0200
0600
0400
0C00
0C00
1800
1800
3000
3000
6000
6000
4000
C000
ENDCHAR

STARTCHAR zero
ENCODING 48
SWIDTH 600 0
DWIDTH 23 0
BBX 15 24 4 0
BITMAP
0380
0FE0
1830
3018
600C
600C
4004
C006
C006
C006
C006
C006
C006
C006
C006
C006
4006
4004
600C
600C
3018
1830
0FE0
0380
ENDCHAR

STARTCHAR one
ENCODING 49
SWIDTH 600 0
DWIDTH 23 0
BBX 14 24 4 0
BITMAP
0300
1F00
FB00
C300
0300
0300
0300
0300
0300
0300
0300
0300
0300
0300
0300
0300
0300
0300
0300
0300
0300
0300
FFFC
FFFC
ENDCHAR

STARTCHAR two
ENCODING 50
SWIDTH 600 0
DWIDTH 23 0
BBX 15 24 3 0
BITMAP
03C0
1FF0
3818
600C
6004
4006
4006
0006
0004
000C
0018
0038
0070
00E0
01C0
0380
0700
0C00
1800
3000
6000
C006
FFFE
FFFE
ENDCHAR

STARTCHAR three
ENCODING 51
SWIDTH 600 0
DWIDTH 23 0
BBX 16 24 3 0
BITMAP
03C0
1FF0
381C
600C
0006
0006
0006
0006
000C
0018
03F0
01F0
001C
0004
0002
0003
0003
0003
0003
0006
C006
701C
1FF0
03C0
ENDCHAR

STARTCHAR four
ENCODING 52
SWIDTH 600 0
DWIDTH 23 0
BBX 14 24 4 0
BITMAP
00F0
00F0
01B0
0130
0330
0630
0630
0C30
0830
1830
3030
3030
6030
6030
C030
FFFC
FFFC
0030
0030
0030
0030
0030
03FC
01FC
ENDCHAR

STARTCHAR five
ENCODING 53
SWIDTH 600 0
DWIDTH 23 0
BBX 16 24 3 0
BITMAP
3FFC
3FFC
3000
3000
3000
3000
3000
3000
33E0
3FF8
380C
0006
0002
0003
0003
0003
0003
0003
0002
4006
E00C
781C
1FF0
03C0
ENDCHAR

STARTCHAR six
ENCODING 54
SWIDTH 600 0
DWIDTH 23 0
BBX 15 24 5 0
BITMAP
007C
03FE
0700
0C00
1800
3000
6000
6000
4000
C1C0
C7F0
DC18
F80C
F004
E006
6006
4006
6006
6006
300C
300C
1C18
0FF0
03C0
ENDCHAR

STARTCHAR seven
ENCODING 55
SWIDTH 600 0
DWIDTH 23 0
BBX 15 24 4 0
BITMAP
FFFE
FFFE
C006
C006
0004
000C
000C
0008
0018
0018
0010
0030
0030
0020
0060
0060
0040
00C0
00C0
00C0
0080
0180
0180
0100
ENDCHAR

STARTCHAR eight
ENCODING 56
SWIDTH 600 0
DWIDTH 23 0
BBX 14 24 4 0
BITMAP
0780
1FE0
3030
6018
4008
C00C
C00C
C00C
4008
6018
3030
0FE0
1FE0
3038
6018
400C
C00C
C00C
C00C
4008
6018
3030
1FE0
0780
ENDCHAR

STARTCHAR nine
ENCODING 57
SWIDTH 600 0
DWIDTH 23 0
BBX 15 24 5 0
BITMAP
0780
1FE0
3030
6018
6018
400C
C00C
C004
C004
400E
601E
601E
3076
1FE6
0786
0006
0004
000C
0018
0038
0070
01C0
FF80
3C00
ENDCHAR

STARTCHAR colon
ENCODING 58
SWIDTH 600 0
DWIDTH 23 0
BBX 6 17 8 0
BITMAP
78
FC
FC
FC
78
00
00
00
00
00
00
00
78
FC
FC
FC
78
ENDCHAR

STARTCHAR semicolon
ENCODING 59
SWIDTH 600 0
DWIDTH 23 0
BBX 9 20 5 -3
BITMAP
0F00
1F80
1F80
1F80
0F00
0000
0000
0000
0000
0000
1F00
1E00
3E00
3C00
3800
7800
7000
7000
E000
4000
ENDCHAR

STARTCHAR less
ENCODING 60
SWIDTH 600 0
DWIDTH 23 0
BBX 18 19 2 1
BITMAP
0001C0
000380
000E00
003800
00E000
03C000
070000
1C0000
700000
F00000
380000
0E0000
038000
00E000
007800
001C00
000700
0001C0
000040
ENDCHAR

STARTCHAR equal
ENCODING 61
SWIDTH 600 0
DWIDTH 23 0
BBX 19 8 2 7
BITMAP
FFFFE0
FFFFE0
000000
000000
000000
000000
FFFFE0
FFFFE0
ENDCHAR

STARTCHAR greater
ENCODING 62
SWIDTH 600 0
DWIDTH 23 0
BBX 18 19 3 1
BITMAP
C00000
700000
1C0000
070000
03C000
00E000
003800
000E00
0001C0
000380
000F00
001C00
007000
01C000
070000
1E0000
380000
E00000
800000
ENDCHAR

STARTCHAR question
ENCODING 63
SWIDTH 600 0
DWIDTH 23 0
BBX 14 22 5 0
BITMAP
0F80
7FE0
E030
C018
C008
000C
000C
000C
0018
0038
00E0
03C0
0300
0300
0300
0000
0000
0000
0700
0F80
0F80
0700
ENDCHAR

STARTCHAR at
ENCODING 64
SWIDTH 600 0
DWIDTH 23 0
BBX 15 27 4 -3
BITMAP
03C0
0FF0
1838
3018
600C
600C
400C
400C
C03C
C0FC
C18C
C30C
C60C
C60C
C60C
C20C
C30C
C1FE
C07C
4000
4000
6000
2000
3000
181C
0FF8
03C0
ENDCHAR

STARTCHAR A
ENCODING 65
SWIDTH 600 0
DWIDTH 23 0
BBX 23 22 0 0
BITMAP
0FF800
0FF800
006C00
004C00
00C400
00C600
008600
018200
018300
010100
030180
030180
060080
07FFC0
07FFC0
0C0060
0C0060
080020
180030
100010
FF01FE
7F01FC
ENDCHAR

STARTCHAR B
ENCODING 66
SWIDTH 600 0
DWIDTH 23 0
BBX 20 22 1 0
BITMAP
FFF800
FFFF00
180380
180180
1800C0
1800C0
1800C0
1800C0
180180
180300
1FFE00
1FFF00
1801C0
180060
180030
180030
180030
180030
180060
1800C0
FFFF80
FFFE00
ENDCHAR

STARTCHAR C
ENCODING 67
SWIDTH 600 0
DWIDTH 23 0
BBX 18 22 2 0
BITMAP
01F0C0
07FEC0
1C03C0
3801C0
3000C0
6000C0
400000
C00000
C00000
C00000
C00000
C00000
C00000
C00000
400000
600000
600000
3000C0
1801C0
0E0380
03FE00
00F000
ENDCHAR

STARTCHAR D
ENCODING 68
SWIDTH 600 0
DWIDTH 23 0
BBX 18 22 3 0
BITMAP
FFE000
FFF800
300E00
300700
300300
300180
300080
3000C0
3000C0
3000C0
3000C0
3000C0
3000C0
3000C0
300080
300080
300180
300300
300700
300E00
FFF800
FFE000
ENDCHAR

STARTCHAR E
ENCODING 69
SWIDTH 600 0
DWIDTH 23 0
BBX 19 22 1 0
BITMAP
FFFFC0
FFFFC0
1800C0
1800C0
1800C0
1800C0
1800C0
183000
183000
183000
1FF000
1FF000
183000
183000
180000
180060
180060
180060
180060
180060
FFFFE0
FFFFE0
ENDCHAR

STARTCHAR F
ENCODING 70
SWIDTH 600 0
DWIDTH 23 0
BBX 18 22 3 0
BITMAP
FFFFC0
FFFFC0
1800C0
1800C0
1800C0
1800C0
1800C0
183000
183000
183000
1FF000
1FF000
183000
183000
180000
180000
180000
180000
180000
180000
FFE000
FFE000
ENDCHAR

STARTCHAR G
ENCODING 71
SWIDTH 600 0
DWIDTH 23 0
BBX 19 22 2 0
BITMAP
01F8C0
07FEC0
0E01C0
1800C0
3000C0
6000C0
600000
400000
C00000
C00000
C00000
C00000
C03FE0
C03FE0
C000C0
4000C0
6000C0
3000C0
3800C0
1E01C0
07FF00
00F800
ENDCHAR

STARTCHAR H
ENCODING 72
SWIDTH 600 0
DWIDTH 23 0
BBX 18 22 3 0
BITMAP
FE1FC0
FE1FC0
300300
300300
300300
300300
300300
300300
300300
300300
3FFF00
3FFF00
300300
300300
300300
300300
300300
300300
300300
300300
FE1FC0
FE1FC0
ENDCHAR

STARTCHAR I
ENCODING 73
SWIDTH 600 0
DWIDTH 23 0
BBX 14 22 4 0
BITMAP
FFFC
FFFC
0300
0300
0300
0300
0300
0300
0300
0300
0300
0300
0300
0300
0300
0300
0300
0300
0300
0300
FFFC
FFFC
ENDCHAR

STARTCHAR J
ENCODING 74
SWIDTH 600 0
DWIDTH 23 0
BBX 20 22 3 0
BITMAP
03FFF0
03FFE0
000600
000600
000600
000600
000600
000600
000600
000600
000600
000600
C00600
C00600
C00600
C00600
C00600
C00C00
E00C00
303800
1FF000
038000
ENDCHAR

STARTCHAR K
ENCODING 75
SWIDTH 600 0
DWIDTH 23 0
BBX 21 22 1 0
BITMAP
FF87F0
FF87F0
180180
180300
180600
180C00
183800
187000
188000
19C000
1BF000
1E3800
1C0C00
180600
180600
180300
180300
180180
180180
180080
FF80F8
FF8070
ENDCHAR

STARTCHAR L
ENCODING 76
SWIDTH 600 0
DWIDTH 23 0
BBX 18 22 3 0
BITMAP
FFE000
FFC000
0C0000
0C0000
0C0000
0C0000
0C0000
0C0000
0C0000
0C0000
0C0000
0C0000
0C0000
0C00C0
0C00C0
0C00C0
0C00C0
0C00C0
0C00C0
0C00C0
FFFFC0
FFFFC0
ENDCHAR

STARTCHAR M
ENCODING 77
SWIDTH 600 0
DWIDTH 23 0
BBX 22 22 1 0
BITMAP
F8007C
FC00FC
3400F0
3601B0
3601B0
320130
330330
310230
318630
308430
30CC30
30CC30
306830
307830
303030
300030
300030
300030
300030
300030
FF03FC
FF01FC
ENDCHAR

STARTCHAR N
ENCODING 78
SWIDTH 600 0
DWIDTH 23 0
BBX 20 22 1 0
BITMAP
F80FF0
FC07F0
1C00C0
1A00C0
1B00C0
1B00C0
1980C0
1880C0
18C0C0
1860C0
1860C0
1830C0
1810C0
1818C0
1808C0
180CC0
1806C0
1806C0
1803C0
1801C0
7F81C0
7F00C0
ENDCHAR

STARTCHAR O
ENCODING 79
SWIDTH 600 0
DWIDTH 23 0
BBX 19 22 2 0
BITMAP
01F000
07FC00
0C0600
180300
300180
2000C0
6000C0
400040
400060
C00060
C00060
C00060
C00060
400060
400040
6000C0
200080
300180
180300
0E0E00
07FC00
00E000
ENDCHAR

STARTCHAR P
ENCODING 80
SWIDTH 600 0
DWIDTH 23 0
BBX 18 22 3 0
BITMAP
FFF800
FFFE00
180300
180180
180080
1800C0
1800C0
1800C0
180080
180180
180700
1FFE00
1FF000
180000
180000
180000
180000
180000
180000
180000
FFE000
FFE000
ENDCHAR

STARTCHAR Q
ENCODING 81
SWIDTH 600 0
DWIDTH 23 0
BBX 19 26 2 -4
BITMAP
01F000
07FC00
0C0600
180300
300180
2000C0
6000C0
400040
400060
C00060
C00060
C00060
C00060
400060
400040
6000C0
2000C0
300180
180300
0E0E00
07FC00
01F000
038000
07F060
0FFFC0
0C0700
ENDCHAR

STARTCHAR R
ENCODING 82
SWIDTH 600 0
DWIDTH 23 0
BBX 21 22 1 0
BITMAP
FFF800
FFFE00
180300
180180
1800C0
1800C0
1800C0
1800C0
180180
180700
1FFC00
1FF800
181C00
180600
180300
180300
180180
1800C0
1800C0
180060
FF8038
FF8038
ENDCHAR

STARTCHAR S
ENCODING 83
SWIDTH 600 0
DWIDTH 23 0
BBX 17 22 3 0
BITMAP
03E300
0FFB00
180700
300300
600300
600300
600000
300000
3C0000
1FE000
07FC00
003E00
000700
000180
000180
000180
C00180
C00100
E00300
F80E00
DFFC00
C3E000
ENDCHAR

STARTCHAR T
ENCODING 84
SWIDTH 600 0
DWIDTH 23 0
BBX 18 22 2 0
BITMAP
FFFFC0
FFFFC0
C0C0C0
C0C0C0
C0C0C0
C0C0C0
C0C0C0
C0C0C0
00C000
00C000
00C000
00C000
00C000
00C000
00C000
00C000
00C000
00C000
00C000
00C000
1FFE00
1FFE00
ENDCHAR

STARTCHAR U
ENCODING 85
SWIDTH 600 0
DWIDTH 23 0
BBX 19 22 2 0
BITMAP
FF0FE0
FE0FE0
300180
300180
300180
300180
300180
300180
300180
300180
300180
300180
300180
300180
300180
300180
100100
180300
080300
0E0E00
07FC00
00E000
ENDCHAR

STARTCHAR V
ENCODING 86
SWIDTH 600 0
DWIDTH 23 0
BBX 23 22 0 0
BITMAP
FF01FE
7F01FC
100030
180030
080020
0C0060
0C0040
0400C0
0600C0
020080
030180
030180
010100
018300
008200
00C600
00C600
004400
006C00
002800
003800
003800
ENDCHAR

STARTCHAR W
ENCODING 87
SWIDTH 600 0
DWIDTH 23 0
BBX 21 22 1 0
BITMAP
FF07F8
FE07F8
600020
200020
200020
207060
207060
30D060
30D860
30D860
308840
318840
118C40
110C40
1304C0
1306C0
1B06C0
1A02C0
1E02C0
1E03C0
1C0380
0C0180
ENDCHAR

STARTCHAR X
ENCODING 88
SWIDTH 600 0
DWIDTH 23 0
BBX 20 22 2 0
BITMAP
FC07E0
FC07E0
300180
180380
0C0700
0C0600
060C00
031800
01B800
00F000
00E000
00F000
01D000
039800
030C00
060600
0C0300
1C0300
380180
300040
FE07F0
FE07F0
ENDCHAR

STARTCHAR Y
ENCODING 89
SWIDTH 600 0
DWIDTH 23 0
BBX 18 22 2 0
BITMAP
FC0FC0
FC0FC0
300300
180600
180600
0C0C00
061800
061800
033000
012000
01E000
00C000
00C000
00C000
00C000
00C000
00C000
00C000
00C000
00C000
0FFE00
0FFC00
ENDCHAR

STARTCHAR Z
ENCODING 90
SWIDTH 600 0
DWIDTH 23 0
BBX 15 22 4 0
BITMAP
FFFC
FFFC
C00C
C018
C030
C030
C060
00C0
00C0
0180
0300
0600
0600
0C00
1806
3006
3006
6006
C006
8006
FFFE
FFFE
ENDCHAR

STARTCHAR bracketleft
ENCODING 91
SWIDTH 600 0
DWIDTH 23 0
BBX 7 29 10 -5
BITMAP
FE
FC
C0
C0
C0
C0
C0
C0
C0
C0
C0
C0
C0
C0
C0
C0
C0
C0
C0
C0
C0
C0
C0
C0
C0
C0
C0
FE
FC
ENDCHAR

STARTCHAR backslash
ENCODING 92
SWIDTH 600 0
DWIDTH 23 0
BBX 15 29 4 -3
BITMAP
C000
C000
6000
6000
3000
3000
1800
1800
0800
0C00
0400
0600
0200
0300
0100
0180
0180
00C0
00C0
0060
0060
0030
0030
0018
0018
0008
000C
0006
0004
ENDCHAR

STARTCHAR bracketright
ENCODING 93
SWIDTH 600 0
DWIDTH 23 0
BBX 7 29 5 -5
BITMAP
FE
7E
06
06
06
06
06
06
06
06
06
06
06
06
06
06
06
06
06
06
06
06
06
06
06
06
06
FE
7E
ENDCHAR

STARTCHAR asciicircum
ENCODING 94
SWIDTH 600 0
DWIDTH 23 0
BBX 15 10 4 14
BITMAP
0100
0300
0380
06C0
0C60
1830
3030
3018
600C
C006
ENDCHAR

STARTCHAR underscore
ENCODING 95
SWIDTH 600 0
DWIDTH 23 0
BBX 23 2 0 -5
BITMAP
FFFFFE
FFFFFE
ENDCHAR

STARTCHAR quoteleft
ENCODING 96
SWIDTH 600 0
DWIDTH 23 0
BBX 8 11 9 12
BITMAP
FC
7C
3C
3E
1E
0E
0E
07
07
03
03
ENDCHAR

STARTCHAR a
ENCODING 97
SWIDTH 600 0
DWIDTH 23 0
BBX 18 17 3 0
BITMAP
03E000
1FF800
300C00
000600
000600
000600
03F600
1FFE00
380600
600600
C00600
C00600
C00E00
401E00
607E00
3FE7C0
0F07C0
ENDCHAR

STARTCHAR b
ENCODING 98
SWIDTH 600 0
DWIDTH 23 0
BBX 20 24 1 0
BITMAP
F80000
F80000
180000
180000
180000
180000
180000
187C00
19FF00
1B0180
1E00C0
1C0060
180020
180030
180030
180030
180030
180020
1C0060
1C0060
1A00C0
1B8380
F9FF00
F83800
ENDCHAR

STARTCHAR c
ENCODING 99
SWIDTH 600 0
DWIDTH 23 0
BBX 18 17 3 0
BITMAP
01F180
0FFD80
1C0380
300180
600180
600180
400000
C00000
C00000
C00000
C00000
600000
6000C0
300180
1C0700
0FFE00
01F000
ENDCHAR

STARTCHAR d
ENCODING 100
SWIDTH 600 0
DWIDTH 23 0
BBX 20 24 2 0
BITMAP
000F80
000F80
000180
000180
000180
000180
000180
03E180
0FF980
1C0D80
300780
600380
600180
400180
C00180
C00180
C00180
400180
600180
600380
300780
1C1D80
0FF9F0
01C1F0
ENDCHAR

STARTCHAR e
ENCODING 101
SWIDTH 600 0
DWIDTH 23 0
BBX 18 17 2 0
BITMAP
01E000
0FFC00
1C0600
300300
600180
400080
C000C0
FFFFC0
FFFFC0
C00000
400000
600000
200000
3000C0
1C0380
07FF00
01F000
ENDCHAR

STARTCHAR f
ENCODING 102
SWIDTH 600 0
DWIDTH 23 0
BBX 17 24 4 0
BITMAP
007E00
01FF80
030000
020000
060000
060000
060000
7FFE00
7FFE00
060000
060000
060000
060000
060000
060000
060000
060000
060000
060000
060000
060000
060000
FFFE00
7FFC00
ENDCHAR

STARTCHAR g
ENCODING 103
SWIDTH 600 0
DWIDTH 23 0
BBX 19 24 2 -7
BITMAP
03C3E0
0FF3E0
381B00
300F00
600700
400300
C00300
C00300
C00300
C00300
400300
600700
300F00
181B00
0FF300
03C300
000300
000300
000300
000200
000600
000C00
0FF800
0FE000
ENDCHAR

STARTCHAR h
ENCODING 104
SWIDTH 600 0
DWIDTH 23 0
BBX 19 24 1 0
BITMAP
F80000
F80000
180000
180000
180000
180000
180000
18F800
19FE00
1B0700
1E0100
1C0180
180180
180180
180180
180180
180180
180180
180180
180180
180180
180180
7F0FE0
7F0FE0
ENDCHAR

STARTCHAR i
ENCODING 105
SWIDTH 600 0
DWIDTH 23 0
BBX 16 25 3 0
BITMAP
0380
0380
0380
0380
0000
0000
0000
0000
3F80
3F80
0180
0180
0180
0180
0180
0180
0180
0180
0180
0180
0180
0180
0180
FFFF
FFFF
ENDCHAR

STARTCHAR j
ENCODING 106
SWIDTH 600 0
DWIDTH 23 0
BBX 12 32 4 -7
BITMAP
00C0
00C0
00C0
00C0
0000
0000
0000
0000
FFF0
FFF0
0030
0030
0030
0030
0030
0030
0030
0030
0030
0030
0030
0030
0030
0030
0030
0030
0030
0030
0060
00E0
FFC0
FF00
ENDCHAR

STARTCHAR k
ENCODING 107
SWIDTH 600 0
DWIDTH 23 0
BBX 18 24 4 0
BITMAP
F80000
F80000
180000
180000
180000
180000
180000
187F00
187F00
183800
187000
18E000
198000
1B0000
1B0000
1D8000
18C000
186000
187000
183800
181C00
180600
F81FC0
F81FC0
ENDCHAR

STARTCHAR l
ENCODING 108
SWIDTH 600 0
DWIDTH 23 0
BBX 16 24 3 0
BITMAP
3F80
3F80
0180
0180
0180
0180
0180
0180
0180
0180
0180
0180
0180
0180
0180
0180
0180
0180
0180
0180
0180
0180
FFFF
FFFF
ENDCHAR

STARTCHAR m
ENCODING 109
SWIDTH 600 0
DWIDTH 23 0
BBX 22 17 0 0
BITMAP
F38380
F7E7E0
3C6C20
383830
303030
303030
303030
303030
303030
303030
303030
303030
303030
303030
303030
FC3C3C
FC3C3C
ENDCHAR

STARTCHAR n
ENCODING 110
SWIDTH 600 0
DWIDTH 23 0
BBX 18 17 2 0
BITMAP
F0F000
F3FC00
360600
3C0200
380300
300300
300300
300300
300300
300300
300300
300300
300300
300300
300300
FE0FC0
FE0FC0
ENDCHAR

STARTCHAR o
ENCODING 111
SWIDTH 600 0
DWIDTH 23 0
BBX 18 17 2 0
BITMAP
01E000
0FFC00
1C0E00
300300
600180
600180
4000C0
C000C0
C000C0
C000C0
400080
600180
600180
300300
1C0E00
0FFC00
01E000
ENDCHAR

STARTCHAR p
ENCODING 112
SWIDTH 600 0
DWIDTH 23 0
BBX 20 24 1 -7
BITMAP
F87C00
F9FF00
1B0180
1E00C0
1C0060
180020
180030
180030
180030
180030
180020
1C0060
1A00C0
1B0180
19FF00
187C00
180000
180000
180000
180000
180000
180000
FFC000
FF8000
ENDCHAR

STARTCHAR q
ENCODING 113
SWIDTH 600 0
DWIDTH 23 0
BBX 20 24 2 -7
BITMAP
03E1F0
0FF9F0
180D80
300780
600380
400180
C00180
C00180
C00180
C00180
400180
600380
300780
1C0D80
0FF980
03E180
000180
000180
000180
000180
000180
000180
003FF0
001FF0
ENDCHAR

STARTCHAR r
ENCODING 114
SWIDTH 600 0
DWIDTH 23 0
BBX 18 17 3 0
BITMAP
3E0F00
7E1F80
0670C0
06C000
068000
070000
060000
060000
060000
060000
060000
060000
060000
060000
060000
FFFE00
7FFE00
ENDCHAR

STARTCHAR s
ENCODING 115
SWIDTH 600 0
DWIDTH 23 0
BBX 16 17 3 0
BITMAP
07E2
1FFE
300E
6006
6002
6000
3800
1FE0
007C
000E
0003
0003
C003
C006
E00E
FFF8
C7E0
ENDCHAR

STARTCHAR t
ENCODING 116
SWIDTH 600 0
DWIDTH 23 0
BBX 18 22 4 0
BITMAP
0C0000
0C0000
0C0000
0C0000
0C0000
FFFE00
7FFE00
0C0000
0C0000
0C0000
0C0000
0C0000
0C0000
0C0000
0C0000
0C0000
0C0000
0C0000
040040
0603C0
03FF00
00F800
ENDCHAR

STARTCHAR u
ENCODING 117
SWIDTH 600 0
DWIDTH 23 0
BBX 19 17 2 0
BITMAP
F81F80
F81F80
180180
180180
180180
180180
180180
180180
180180
180180
180180
180180
180380
080780
0C1F80
07F9E0
01C1E0
ENDCHAR

STARTCHAR v
ENCODING 118
SWIDTH 600 0
DWIDTH 23 0
BBX 21 17 1 0
BITMAP
FF07F8
FF07F8
1800C0
180080
0C0180
0C0180
040300
060300
020200
030600
030400
018C00
018C00
009800
00D800
007000
007000
ENDCHAR

STARTCHAR w
ENCODING 119
SWIDTH 600 0
DWIDTH 23 0
BBX 20 17 1 0
BITMAP
FC03F0
FC03F0
200040
3000C0
3060C0
3060C0
10F080
10D080
189180
199980
199980
090900
0B0D00
0F0F00
0E0700
0E0700
060600
ENDCHAR

STARTCHAR x
ENCODING 120
SWIDTH 600 0
DWIDTH 23 0
BBX 19 17 2 0
BITMAP
7E0FC0
7E0FC0
180300
0C0600
060C00
031800
01B000
00E000
00E000
01B000
031800
060C00
0C0600
180300
200080
FE0FE0
FE0FE0
ENDCHAR

STARTCHAR y
ENCODING 121
SWIDTH 600 0
DWIDTH 23 0
BBX 19 24 3 -7
BITMAP
FC07E0
FC07E0
200080
300180
100100
180300
080200
0C0600
040400
060C00
020800
031800
011000
01B000
00A000
00E000
004000
00C000
008000
018000
010000
030000
FFE000
FFE000
ENDCHAR

STARTCHAR z
ENCODING 122
SWIDTH 600 0
DWIDTH 23 0
BBX 14 17 5 0
BITMAP
FFF8
FFF8
C018
C030
C060
00C0
0180
0300
0300
0600
0C00
1800
300C
600C
400C
FFFC
FFFC
ENDCHAR

STARTCHAR braceleft
ENCODING 123
SWIDTH 600 0
DWIDTH 23 0
BBX 8 28 7 -4
BITMAP
07
0F
08
18
18
18
18
18
18
18
18
18
30
E0
F0
10
18
18
18
18
18
18
18
18
18
08
0F
07
ENDCHAR

STARTCHAR bar
ENCODING 124
SWIDTH 600 0
DWIDTH 23 0
BBX 2 28 10 -4
BITMAP
C0
C0
C0
C0
C0
C0
C0
C0
C0
C0
C0
C0
C0
C0
C0
C0
C0
C0
C0
C0
C0
C0
C0
C0
C0
C0
C0
C0
ENDCHAR

STARTCHAR braceright
ENCODING 125
SWIDTH 600 0
DWIDTH 23 0
BBX 8 28 7 -4
BITMAP
E0
F0
10
18
18
18
18
18
18
18
18
18
0C
07
0F
0C
18
18
18
18
18
18
18
18
18
10
F0
E0
ENDCHAR

STARTCHAR asciitilde
ENCODING 126
SWIDTH 600 0
DWIDTH 23 0
BBX 16 6 3 8
BITMAP
0C00
3F01
6183
C0C7
407E
0018
ENDCHAR

STARTCHAR space
ENCODING 160
SWIDTH 600 0
DWIDTH 24 0
BBX 0 0 0 0
BITMAP
ENDCHAR

STARTCHAR Aogonek
ENCODING 161
SWIDTH 600 0
DWIDTH 23 0
BBX 24 27 0 -5
BITMAP
0FF800
0FF800
006C00
006C00
00C400
00C600
008600
018300
018300
010100
030180
030180
060080
07FFC0
07FFC0
0C0060
0C0060
080020
180030
100010
FF01FE
7F01FC
000030
000020
000020
000033
00001E
ENDCHAR

STARTCHAR breve
ENCODING 162
SWIDTH 600 0
DWIDTH 23 0
BBX 11 5 6 19
BITMAP
8060
C060
60C0
7F80
0E00
ENDCHAR

STARTCHAR Lslash
ENCODING 163
SWIDTH 600 0
DWIDTH 23 0
BBX 19 22 2 0
BITMAP
FFF000
7FE000
060000
060000
060000
060000
060000
063000
067000
06C000
070000
0E0000
3E0000
E60060
860060
060060
060060
060060
060060
060060
FFFFE0
7FFFE0
ENDCHAR

STARTCHAR currency
ENCODING 164
SWIDTH 600 0
DWIDTH 23 0
BBX 15 15 4 4
BITMAP
C006
E38E
77EC
1830
3018
2008
600C
600C
600C
2008
1010
3838
77EC
E38E
C006
ENDCHAR

STARTCHAR Lcaron
ENCODING 165
SWIDTH 600 0
DWIDTH 23 0
BBX 18 22 3 0
BITMAP
FFE300
FFC780
0C0780
0C0380
0C0100
0C0300
0C0600
0C0000
0C0000
0C0000
0C0000
0C0000
0C0000
0C00C0
0C00C0
0C00C0
0C00C0
0C00C0
0C00C0
0C00C0
FFFFC0
FFFFC0
ENDCHAR

STARTCHAR Sacute
ENCODING 166
SWIDTH 600 0
DWIDTH 23 0
BBX 17 29 3 0
BITMAP
006000
00C000
018000
030000
060000
000000
000000
03E300
0FFB00
180700
300300
200300
600300
600000
700000
3C0000
1FE000
0FFC00
03FE00
001F00
000380
000180
000180
C00180
C00100
C00300
F00E00
CFFC00
C3E000
ENDCHAR

STARTCHAR section
ENCODING 167
SWIDTH 600 0
DWIDTH 23 0
BBX 18 26 2 -2
BITMAP
03FF00
060100
0C0100
080100
080100
000000
0C0000
7E0000
C18000
80C000
803000
401C00
300600
180380
060080
030040
00C040
0030C0
001F80
000C00
000400
200400
200400
200C00
201800
3FF000
ENDCHAR

STARTCHAR dieresis
ENCODING 168
SWIDTH 600 0
DWIDTH 23 0
BBX 11 3 6 20
BITMAP
E0E0
E0E0
E0E0
ENDCHAR

STARTCHAR Scaron
ENCODING 169
SWIDTH 600 0
DWIDTH 23 0
BBX 17 29 3 0
BITMAP
100C00
181800
0E3000
036000
01C000
008000
000000
03E300
0FFB00
180700
300300
200300
600300
600000
700000
3C0000
1FE000
0FFC00
03FE00
001F00
000380
000180
000180
C00180
C00100
C00300
F00E00
CFFC00
C3E000
ENDCHAR

STARTCHAR Scommaaccent
ENCODING 170
SWIDTH 600 0
DWIDTH 23 0
BBX 16 31 3 -9
BITMAP
03C6
0FFE
180E
2006
6006
6006
6000
7000
3C00
1FC0
0FF8
00FC
000E
0007
0003
0003
C003
C002
C006
F00C
CFF8
C3E0
0000
0000
03C0
03C0
03C0
00C0
0180
0180
0300
ENDCHAR

STARTCHAR Tcaron
ENCODING 171
SWIDTH 600 0
DWIDTH 23 0
BBX 18 29 2 0
BITMAP
180600
0E1C00
073800
01E000
00C000
000000
000000
FFFFC0
FFFFC0
C0C0C0
C0C0C0
C0C0C0
C0C0C0
C0C0C0
C0C0C0
00C000
00C000
00C000
00C000
00C000
00C000
00C000
00C000
00C000
00C000
00C000
00C000
1FFE00
1FFE00
ENDCHAR

STARTCHAR Zacute
ENCODING 172
SWIDTH 600 0
DWIDTH 23 0
BBX 15 30 4 0
BITMAP
0040
00C0
0180
0300
0E00
0C00
0000
0000
FFFC
FFFC
C00C
C018
C030
C030
C060
00C0
00C0
0180
0300
0600
0600
0C00
1806
3006
3006
6006
C006
8006
FFFE
FFFE
ENDCHAR

STARTCHAR hyphen
ENCODING 173
SWIDTH 600 0
DWIDTH 23 0
BBX 16 2 3 10
BITMAP
FFFF
FFFF
ENDCHAR

STARTCHAR Zcaron
ENCODING 174
SWIDTH 600 0
DWIDTH 23 0
BBX 15 29 4 0
BITMAP
2018
3830
1CE0
07C0
0300
0000
0000
FFFC
FFFC
C00C
C018
C030
C030
C060
00C0
00C0
0180
0300
0600
0600
0C00
1806
3006
3006
6006
C006
8006
FFFE
FFFE
ENDCHAR

STARTCHAR Zdotaccent
ENCODING 175
SWIDTH 600 0
DWIDTH 23 0
BBX 15 28 4 0
BITMAP
0300
0780
0780
0300
0000
0000
FFFC
FFFC
C00C
C018
C030
C030
C060
00C0
00C0
0180
0300
0600
0600
0C00
1806
3006
3006
6006
C006
8006
FFFE
FFFE
ENDCHAR

STARTCHAR degree
ENCODING 176
SWIDTH 600 0
DWIDTH 23 0
BBX 10 10 6 18
BITMAP
1E00
7F80
6180
C0C0
C0C0
C0C0
E0C0
7180
3F80
1E00
ENDCHAR

STARTCHAR aogonek
ENCODING 177
SWIDTH 600 0
DWIDTH 23 0
BBX 19 21 3 -4
BITMAP
03E000
1FF800
300C00
000600
000600
000600
000600
0FFE00
3C0E00
600600
C00600
C00600
C00600
401E00
603E00
3FE7C0
0703C0
000600
000400
000620
0003C0
ENDCHAR

STARTCHAR ogonek
ENCODING 178
SWIDTH 600 0
DWIDTH 23 0
BBX 5 6 9 -5
BITMAP
30
C0
80
80
C8
78
ENDCHAR

STARTCHAR lslash
ENCODING 179
SWIDTH 600 0
DWIDTH 23 0
BBX 16 24 3 0
BITMAP
3F80
3F80
0180
0180
0180
0180
0180
0180
0184
0198
01B0
01C0
0380
0F80
3980
1180
0180
0180
0180
0180
0180
0180
FFFF
FFFF
ENDCHAR

STARTCHAR acute
ENCODING 180
SWIDTH 600 0
DWIDTH 23 0
BBX 7 6 8 19
BITMAP
06
0C
18
30
60
C0
ENDCHAR

STARTCHAR lcaron
ENCODING 181
SWIDTH 600 0
DWIDTH 23 0
BBX 16 24 4 0
BITMAP
3F8C
3F9E
019E
0186
018C
0198
0188
0180
0180
0180
0180
0180
0180
0180
0180
0180
0180
0180
0180
0180
0180
0180
FFFF
FFFF
ENDCHAR

STARTCHAR sacute
ENCODING 182
SWIDTH 600 0
DWIDTH 23 0
BBX 16 25 3 0
BITMAP
0020
0060
00C0
0180
0700
0600
0000
0000
07E2
1FFE
300E
6006
6002
6000
3800
1FE0
03FC
000E
0007
0003
C003
C006
E00E
DFF8
C3E0
ENDCHAR

STARTCHAR caron
ENCODING 183
SWIDTH 600 0
DWIDTH 23 0
BBX 11 5 6 19
BITMAP
C060
E0C0
3380
1F00
0C00
ENDCHAR

STARTCHAR commaaccent
ENCODING 184
SWIDTH 600 0
DWIDTH 23 0
BBX 4 7 9 -9
BITMAP
F0
F0
F0
30
60
60
C0
ENDCHAR

STARTCHAR scaron
ENCODING 185
SWIDTH 600 0
DWIDTH 23 0
BBX 16 24 3 0
BITMAP
300C
1818
0E70
07E0
0180
0000
0000
07E2
1FFE
300E
6006
6002
6000
3800
1FE0
03FC
000E
0007
0003
C003
C006
E00E
DFF8
C3E0
ENDCHAR

STARTCHAR scommaaccent
ENCODING 186
SWIDTH 600 0
DWIDTH 23 0
BBX 16 26 3 -9
BITMAP
07C2
1FFE
300E
6006
6006
6000
3800
1FE0
01FC
000E
0007
0003
C003
C006
E00E
DFF8
C7E0
0000
0000
03C0
03C0
03C0
00C0
0180
0180
0300
ENDCHAR

STARTCHAR tcaron
ENCODING 187
SWIDTH 600 0
DWIDTH 23 0
BBX 18 24 3 0
BITMAP
001800
003C00
0C1C00
0C0800
0C1800
0C3000
0C0000
FFFF00
7FFE00
0C0000
0C0000
0C0000
0C0000
0C0000
0C0000
0C0000
0C0000
0C0000
0C0000
0C0000
040040
0601C0
03FF00
00F800
ENDCHAR

STARTCHAR zacute
ENCODING 188
SWIDTH 600 0
DWIDTH 23 0
BBX 14 25 5 0
BITMAP
00C0
0180
0300
0E00
0C00
0000
0000
0000
FFF8
FFF8
C018
C030
C060
00C0
0180
0300
0300
0600
0C00
1800
300C
600C
400C
FFFC
FFFC
ENDCHAR

STARTCHAR hungarumlaut
ENCODING 189
SWIDTH 600 0
DWIDTH 23 0
BBX 11 6 6 19
BITMAP
0820
1860
30C0
6180
E300
C200
ENDCHAR

STARTCHAR zcaron
ENCODING 190
SWIDTH 600 0
DWIDTH 23 0
BBX 14 25 5 0
BITMAP
6010
3070
18E0
0EC0
0700
0100
0000
0000
FFF8
FFF8
C018
C030
C060
00C0
0180
0300
0300
0600
0C00
1800
300C
600C
400C
FFFC
FFFC
ENDCHAR

STARTCHAR zdotaccent
ENCODING 191
SWIDTH 600 0
DWIDTH 23 0
BBX 14 24 5 0
BITMAP
0300
0780
0780
0300
0000
0000
0000
FFF8
FFF8
C018
C030
C060
00C0
0180
0300
0300
0600
0C00
1800
300C
600C
400C
FFFC
FFFC
ENDCHAR

STARTCHAR Racute
ENCODING 192
SWIDTH 600 0
DWIDTH 23 0
BBX 21 30 1 0
BITMAP
000400
001C00
003800
007000
01C000
008000
000000
000000
FFF800
FFFE00
180300
180180
1800C0
1800C0
1800C0
1800C0
180180
180700
1FFC00
1FF800
181C00
180600
180300
180300
180180
1800C0
1800C0
180060
FF8038
FF8038
ENDCHAR

STARTCHAR Aacute
ENCODING 193
SWIDTH 600 0
DWIDTH 23 0
BBX 23 30 0 0
BITMAP
000600
000C00
001800
003000
006000
00C000
000000
000000
0FF800
0FF800
006C00
004C00
00C400
00C600
008600
018200
018300
010100
030180
030180
060080
07FFC0
07FFC0
0C0060
0C0060
080020
180030
100010
FF01FE
7F01FC
ENDCHAR

STARTCHAR Acircumflex
ENCODING 194
SWIDTH 600 0
DWIDTH 23 0
BBX 23 29 0 0
BITMAP
003800
007C00
00C600
038300
030180
000000
000000
0FF800
0FF800
006C00
004C00
00C400
00C600
008600
018200
018300
010100
030180
030180
060080
07FFC0
07FFC0
0C0060
0C0060
080020
180030
100010
FF01FE
7F01FC
ENDCHAR

STARTCHAR Abreve
ENCODING 195
SWIDTH 600 0
DWIDTH 23 0
BBX 23 29 0 0
BITMAP
020180
030180
018300
01FF00
007C00
000000
000000
0FF800
0FF800
006C00
004C00
00C400
00C600
008600
018300
018300
010100
030180
030180
060080
07FFC0
07FFC0
0C0060
0C0060
080020
180030
100010
FF01FE
7F01FC
ENDCHAR

STARTCHAR Adieresis
ENCODING 196
SWIDTH 600 0
DWIDTH 23 0
BBX 23 28 0 0
BITMAP
038380
038380
038380
000000
000000
000000
0FF800
0FF800
006C00
006C00
00C400
00C600
008600
018300
018300
010100
030180
030180
060080
07FFC0
07FFC0
0C0060
0C0060
080020
180030
100010
FF01FE
7F01FC
ENDCHAR

STARTCHAR Lacute
ENCODING 197
SWIDTH 600 0
DWIDTH 23 0
BBX 18 30 3 0
BITMAP
001000
007000
00E000
018000
070000
020000
000000
000000
FFE000
FFC000
0C0000
0C0000
0C0000
0C0000
0C0000
0C0000
0C0000
0C0000
0C0000
0C0000
0C0000
0C00C0
0C00C0
0C00C0
0C00C0
0C00C0
0C00C0
0C00C0
FFFFC0
FFFFC0
ENDCHAR

STARTCHAR Cacute
ENCODING 198
SWIDTH 600 0
DWIDTH 23 0
BBX 18 30 2 0
BITMAP
001800
003000
00E000
01C000
038000
020000
000000
000000
01F0C0
07FEC0
1C03C0
3801C0
3000C0
6000C0
400000
C00000
C00000
C00000
C00000
C00000
C00000
C00000
400000
600000
600000
3000C0
1801C0
0E0780
03FE00
00F000
ENDCHAR

STARTCHAR Ccedilla
ENCODING 199
SWIDTH 600 0
DWIDTH 23 0
BBX 18 27 2 -5
BITMAP
01F0C0
07FCC0
1C03C0
3801C0
3000C0
6000C0
400000
C00000
C00000
C00000
C00000
C00000
C00000
C00000
400000
600000
600000
3000C0
1801C0
0E0380
03FE00
00F000
004000
006000
001000
031000
01E000
ENDCHAR

STARTCHAR Ccaron
ENCODING 200
SWIDTH 600 0
DWIDTH 23 0
BBX 18 30 2 0
BITMAP
080000
0C0600
061C00
03B800
01E000
004000
000000
000000
01F0C0
07FEC0
1C03C0
3801C0
3000C0
6000C0
400000
C00000
C00000
C00000
C00000
C00000
C00000
C00000
400000
600000
600000
3000C0
1801C0
0E0780
03FE00
00F000
ENDCHAR

STARTCHAR Eacute
ENCODING 201
SWIDTH 600 0
DWIDTH 23 0
BBX 19 30 1 0
BITMAP
001000
003000
006000
00C000
038000
030000
000000
000000
FFFFC0
FFFFC0
1800C0
1800C0
1800C0
1800C0
1800C0
183000
183000
183000
1FF000
1FF000
183000
183000
180000
180060
180060
180060
180060
180060
FFFFE0
FFFFE0
ENDCHAR

STARTCHAR Eogonek
ENCODING 202
SWIDTH 600 0
DWIDTH 23 0
BBX 19 27 2 -5
BITMAP
FFFF80
FFFF80
180180
180180
180180
180180
180080
183000
183000
183000
1FF000
1FF000
183000
183000
180000
1800C0
1800C0
1800C0
1800C0
1800C0
FFFFC0
FFFFC0
000300
000200
000200
000320
0001E0
ENDCHAR

STARTCHAR Edieresis
ENCODING 203
SWIDTH 600 0
DWIDTH 23 0
BBX 19 28 1 0
BITMAP
0E0E00
0E0E00
0E0E00
000000
000000
000000
FFFFC0
FFFFC0
1800C0
1800C0
1800C0
1800C0
1800C0
183000
183000
183000
1FF000
1FF000
183000
183000
180000
180060
180060
180060
180060
180060
FFFFE0
FFFFE0
ENDCHAR

STARTCHAR Ecaron
ENCODING 204
SWIDTH 600 0
DWIDTH 23 0
BBX 19 29 1 0
BITMAP
080600
0E0C00
033800
01F000
00C000
000000
000000
FFFFC0
FFFFC0
1800C0
1800C0
1800C0
1800C0
1800C0
183000
183000
183000
1FF000
1FF000
183000
183000
180000
180060
180060
180060
180060
180060
FFFFE0
FFFFE0
ENDCHAR

STARTCHAR Iacute
ENCODING 205
SWIDTH 600 0
DWIDTH 23 0
BBX 14 30 4 0
BITMAP
0040
00C0
0180
0700
0E00
0C00
0000
0000
FFFC
FFFC
0300
0300
0300
0300
0300
0300
0300
0300
0300
0300
0300
0300
0300
0300
0300
0300
0300
0300
FFFC
FFFC
ENDCHAR

STARTCHAR Icircumflex
ENCODING 206
SWIDTH 600 0
DWIDTH 23 0
BBX 14 29 4 0
BITMAP
0300
0780
1CE0
3870
2018
0000
0000
FFFC
FFFC
0300
0300
0300
0300
0300
0300
0300
0300
0300
0300
0300
0300
0300
0300
0300
0300
0300
0300
FFFC
FFFC
ENDCHAR

STARTCHAR Dcaron
ENCODING 207
SWIDTH 600 0
DWIDTH 23 0
BBX 18 29 3 0
BITMAP
180C00
0C1C00
073000
01E000
00C000
000000
000000
FFE000
FFF800
300E00
300300
300300
300180
300080
3000C0
3000C0
3000C0
3000C0
3000C0
3000C0
3000C0
300080
300080
300180
300300
300700
300E00
FFF800
FFE000
ENDCHAR

STARTCHAR Dcroat
ENCODING 208
SWIDTH 600 0
DWIDTH 23 0
BBX 20 22 0 0
BITMAP
3FF800
3FFE00
0C0380
0C01C0
0C00C0
0C0060
0C0020
0C0020
0C0030
0C0030
FFF030
FFF030
0C0030
0C0030
0C0030
0C0020
0C0060
0C0040
0C00C0
0C0380
3FFE00
3FF800
ENDCHAR

STARTCHAR Nacute
ENCODING 209
SWIDTH 600 0
DWIDTH 23 0
BBX 20 30 1 0
BITMAP
000800
001800
003000
006000
01C000
018000
000000
000000
F80FF0
FC07F0
1C00C0
1A00C0
1B00C0
1B00C0
1980C0
1880C0
18C0C0
1860C0
1860C0
1830C0
1810C0
1818C0
1808C0
180CC0
1806C0
1806C0
1803C0
1801C0
7F81C0
7F00C0
ENDCHAR

STARTCHAR Ncaron
ENCODING 210
SWIDTH 600 0
DWIDTH 23 0
BBX 20 29 1 0
BITMAP
060200
070E00
019C00
00F000
006000
000000
000000
F80FF0
FC07F0
1C00C0
1A00C0
1B00C0
1B00C0
1980C0
1880C0
18C0C0
1860C0
1860C0
1830C0
1810C0
1818C0
1808C0
180CC0
1806C0
1806C0
1803C0
1801C0
7F81C0
7F00C0
ENDCHAR

STARTCHAR Oacute
ENCODING 211
SWIDTH 600 0
DWIDTH 23 0
BBX 19 29 2 0
BITMAP
001800
003000
006000
01C000
038000
010000
000000
01F000
07FC00
0C0600
180300
300180
2000C0
6000C0
400040
400060
C00060
C00060
C00060
C00060
400060
400040
6000C0
200080
300180
180300
0E0600
07FC00
00E000
ENDCHAR

STARTCHAR Ocircumflex
ENCODING 212
SWIDTH 600 0
DWIDTH 23 0
BBX 19 29 2 0
BITMAP
004000
00E000
01B000
071C00
0E0E00
080200
000000
01F000
07FC00
0C0600
180300
300180
2000C0
6000C0
400040
400060
C00060
C00060
C00060
C00060
400060
400040
6000C0
200080
300180
180300
0E0600
07FC00
00E000
ENDCHAR

STARTCHAR Ohungarumlaut
ENCODING 213
SWIDTH 600 0
DWIDTH 23 0
BBX 19 29 2 0
BITMAP
008600
018E00
031C00
063800
0C3000
042000
000000
01F000
07FC00
0C0600
180300
300180
2000C0
6000C0
400040
400060
C00060
C00060
C00060
C00060
400060
400040
6000C0
200080
300180
180300
0E0600
07FC00
00E000
ENDCHAR

STARTCHAR Odieresis
ENCODING 214
SWIDTH 600 0
DWIDTH 23 0
BBX 19 27 2 0
BITMAP
0E0E00
0E0E00
060E00
000000
000000
01F000
07FC00
0C0600
180300
300180
2000C0
6000C0
400040
400060
C00060
C00060
C00060
C00060
400060
400040
6000C0
2000C0
300180
180300
0C0600
07FC00
00E000
ENDCHAR

STARTCHAR multiply
ENCODING 215
SWIDTH 600 0
DWIDTH 23 0
BBX 13 13 5 4
BITMAP
C018
6030
3060
18C0
0D80
0700
0700
0D80
18C0
3060
6030
C018
4008
ENDCHAR

STARTCHAR Rcaron
ENCODING 216
SWIDTH 600 0
DWIDTH 23 0
BBX 21 29 1 0
BITMAP
060100
030700
01CE00
00F800
003000
000000
000000
FFF800
FFFE00
180300
180180
1800C0
1800C0
1800C0
1800C0
180180
180700
1FFC00
1FF800
181C00
180600
180300
180300
180180
1800C0
1800C0
180060
FF8038
FF8038
ENDCHAR

STARTCHAR Uring
ENCODING 217
SWIDTH 600 0
DWIDTH 23 0
BBX 19 30 2 0
BITMAP
01F000
031800
020800
020800
031800
01F000
000000
000000
FE0FE0
FE0FE0
300180
300180
300180
300180
300180
300180
300180
300180
300180
300180
300180
300180
300180
300180
100100
180300
180300
0E0E00
07FC00
00F000
ENDCHAR

STARTCHAR Uacute
ENCODING 218
SWIDTH 600 0
DWIDTH 23 0
BBX 19 30 2 0
BITMAP
001800
003000
006000
00C000
038000
010000
000000
000000
FF0FE0
FE0FE0
300180
300180
300180
300180
300180
300180
300180
300180
300180
300180
300180
300180
300180
300180
100100
180300
080300
0E0E00
03FC00
00E000
ENDCHAR

STARTCHAR Uhungarumlaut
ENCODING 219
SWIDTH 600 0
DWIDTH 23 0
BBX 19 30 2 0
BITMAP
008200
018600
038C00
071800
063000
0C2000
000000
000000
FF0FE0
FE0FE0
300180
300180
300180
300180
300180
300180
300180
300180
300180
300180
300180
300180
300180
300180
100100
180300
080300
0E0E00
03FC00
00E000
ENDCHAR

STARTCHAR Udieresis
ENCODING 220
SWIDTH 600 0
DWIDTH 23 0
BBX 19 28 2 0
BITMAP
0E0E00
0E0E00
060E00
000000
000000
000000
FE0FE0
FE0FE0
300180
300180
300180
300180
300180
300180
300180
300180
300180
300180
300180
300180
300180
300180
100100
180300
080300
0E0E00
07FC00
00E000
ENDCHAR

STARTCHAR Yacute
ENCODING 221
SWIDTH 600 0
DWIDTH 23 0
BBX 18 30 2 0
BITMAP
001000
003000
006000
01C000
038000
030000
000000
000000
FC0FC0
FC0FC0
300300
180600
180600
0C0C00
061800
061800
033000
012000
01E000
00C000
00C000
00C000
00C000
00C000
00C000
00C000
00C000
00C000
0FFE00
0FFC00
ENDCHAR

STARTCHAR Tcommaaccent
ENCODING 222
SWIDTH 600 0
DWIDTH 23 0
BBX 18 31 2 -9
BITMAP
FFFFC0
FFFFC0
C0C0C0
C0C0C0
C0C0C0
C0C0C0
C0C0C0
C0C0C0
00C000
00C000
00C000
00C000
00C000
00C000
00C000
00C000
00C000
00C000
00C000
00C000
1FFE00
1FFE00
000000
000000
01E000
01E000
01E000
006000
00C000
018000
018000
ENDCHAR

STARTCHAR germandbls
ENCODING 223
SWIDTH 600 0
DWIDTH 23 0
BBX 18 24 1 0
BITMAP
01E000
07F800
0C1C00
080C00
180600
180600
180600
180400
181C00
18F000
18FC00
180600
180300
180180
180080
1800C0
1800C0
1800C0
1800C0
184080
186180
186180
FC3F00
FC0C00
ENDCHAR

STARTCHAR racute
ENCODING 224
SWIDTH 600 0
DWIDTH 23 0
BBX 18 25 3 0
BITMAP
003000
006000
00C000
018000
030000
000000
000000
000000
3E0F00
7E1F80
0670C0
06C000
068000
070000
060000
060000
060000
060000
060000
060000
060000
060000
060000
FFFE00
7FFE00
ENDCHAR

STARTCHAR aacute
ENCODING 225
SWIDTH 600 0
DWIDTH 23 0
BBX 18 25 3 0
BITMAP
001000
003000
00E000
01C000
038000
020000
000000
000000
03E000
3FF800
300C00
000600
000600
000600
03E600
1FFE00
380600
600600
C00600
C00600
C00E00
401E00
607E00
3FE7C0
0F07C0
ENDCHAR

STARTCHAR acircumflex
ENCODING 226
SWIDTH 600 0
DWIDTH 23 0
BBX 18 25 3 0
BITMAP
004000
00C000
03B000
073800
0C0E00
080400
000000
000000
03E000
3FF800
300C00
000600
000600
000600
03E600
1FFE00
380600
600600
C00600
C00600
C00E00
401E00
607E00
3FE7C0
0F07C0
ENDCHAR

STARTCHAR abreve
ENCODING 227
SWIDTH 600 0
DWIDTH 23 0
BBX 18 24 3 0
BITMAP
080600
080400
0C0C00
07F800
01E000
000000
000000
03E000
3FF800
300C00
000600
000600
000600
03E600
1FFE00
380600
600600
C00600
C00600
C00E00
401E00
607E00
3FE7C0
0F07C0
ENDCHAR

STARTCHAR adieresis
ENCODING 228
SWIDTH 600 0
DWIDTH 23 0
BBX 19 23 2 0
BITMAP
0E0E00
0E0E00
0E0E00
000000
000000
000000
03F000
1FFC00
300600
000300
000300
000300
03F300
1FFF00
380300
600300
C00300
C00300
C00700
400F00
603B00
3FF3E0
0783E0
ENDCHAR

STARTCHAR lacute
ENCODING 229
SWIDTH 600 0
DWIDTH 23 0
BBX 16 31 3 0
BITMAP
0020
00E0
01C0
0380
0600
0400
0000
3F80
3F80
0180
0180
0180
0180
0180
0180
0180
0180
0180
0180
0180
0180
0180
0180
0180
0180
0180
0180
0180
0180
FFFF
FFFF
ENDCHAR

STARTCHAR cacute
ENCODING 230
SWIDTH 600 0
DWIDTH 23 0
BBX 18 25 3 0
BITMAP
003000
006000
00C000
038000
030000
000000
000000
000000
01F180
0FFD80
1C0380
300180
600180
600180
400000
C00000
C00000
C00000
C00000
600000
6000C0
300180
1C0700
0FFE00
01F000
ENDCHAR

STARTCHAR ccedilla
ENCODING 231
SWIDTH 600 0
DWIDTH 23 0
BBX 18 22 3 -5
BITMAP
03E180
0FFD80
180780
300180
600180
400180
400000
C00000
C00000
C00000
C00000
400000
6000C0
300180
1C0700
0FFC00
01E000
008000
00C000
002000
062000
03C000
ENDCHAR

STARTCHAR ccaron
ENCODING 232
SWIDTH 600 0
DWIDTH 23 0
BBX 18 25 3 0
BITMAP
180600
0C0C00
073800
03B000
00C000
004000
000000
000000
01F180
0FFD80
1C0380
300180
600180
600180
400000
C00000
C00000
C00000
C00000
600000
6000C0
300180
1C0700
0FFE00
01F000
ENDCHAR

STARTCHAR eacute
ENCODING 233
SWIDTH 600 0
DWIDTH 23 0
BBX 18 25 2 0
BITMAP
001000
003000
00E000
01C000
030000
020000
000000
000000
01E000
0FFC00
180600
300300
600180
400080
C000C0
FFFFC0
FFFFC0
C00000
400000
600000
200000
3000C0
1C0380
07FF00
01F000
ENDCHAR

STARTCHAR eogonek
ENCODING 234
SWIDTH 600 0
DWIDTH 23 0
BBX 17 21 2 -4
BITMAP
03E000
0FFC00
380E00
300300
600180
C00180
C00080
FFFF80
FFFF80
C00000
C00000
600000
600000
300080
1C0780
0FFE00
01F000
010000
010000
018800
00F000
ENDCHAR

STARTCHAR edieresis
ENCODING 235
SWIDTH 600 0
DWIDTH 23 0
BBX 18 23 2 0
BITMAP
0E0E00
0E0E00
0E0E00
000000
000000
000000
01F000
0FFC00
1C0600
300300
600180
600080
C000C0
FFFFC0
FFFFC0
C00000
400000
600000
300000
3800C0
1E0380
07FF00
00F800
ENDCHAR

STARTCHAR ecaron
ENCODING 236
SWIDTH 600 0
DWIDTH 23 0
BBX 18 24 2 0
BITMAP
180E00
0E1C00
033800
01E000
00C000
000000
000000
01E000
0FFC00
180600
300300
600180
400080
C000C0
FFFFC0
FFFFC0
C00000
400000
600000
200000
3000C0
1C0380
07FF00
01F000
ENDCHAR

STARTCHAR iacute
ENCODING 237
SWIDTH 600 0
DWIDTH 23 0
BBX 16 25 3 0
BITMAP
0060
00C0
0180
0300
0600
0000
0000
0000
3F80
3F80
0180
0180
0180
0180
0180
0180
0180
0180
0180
0180
0180
0180
0180
FFFF
FFFF
ENDCHAR

STARTCHAR icircumflex
ENCODING 238
SWIDTH 600 0
DWIDTH 23 0
BBX 16 25 3 0
BITMAP
0180
03C0
0660
1C38
181C
0000
0000
0000
3F80
3F80
0180
0180
0180
0180
0180
0180
0180
0180
0180
0180
0180
0180
0180
FFFF
FFFF
ENDCHAR

STARTCHAR dcaron
ENCODING 239
SWIDTH 600 0
DWIDTH 23 0
BBX 23 24 2 0
BITMAP
000F8C
000F9E
00019E
000186
000184
00018C
000198
03E180
0FF980
1C0D80
300780
600380
600180
400180
C00180
C00180
C00180
400180
600180
600380
300780
1C1D80
0FF9F0
01C1F0
ENDCHAR

STARTCHAR dcroat
ENCODING 240
SWIDTH 600 0
DWIDTH 23 0
BBX 20 24 2 0
BITMAP
000F80
000F80
000180
007FF0
007FF0
000180
000180
03E180
0FF980
1C0D80
300780
600380
600180
400180
C00180
C00180
C00180
400180
600180
600380
300780
1C1D80
0FF9F0
01C1F0
ENDCHAR

STARTCHAR nacute
ENCODING 241
SWIDTH 600 0
DWIDTH 23 0
BBX 18 25 2 0
BITMAP
003000
006000
01C000
038000
030000
000000
000000
000000
F0F000
F3FC00
360600
3C0200
380300
300300
300300
300300
300300
300300
300300
300300
300300
300300
300300
FE0FC0
FE0FC0
ENDCHAR

STARTCHAR ncaron
ENCODING 242
SWIDTH 600 0
DWIDTH 23 0
BBX 18 25 2 0
BITMAP
180400
0C1C00
063800
03B000
01C000
004000
000000
000000
F0F000
F3FC00
360600
3C0200
380300
300300
300300
300300
300300
300300
300300
300300
300300
300300
300300
FE0FC0
FE0FC0
ENDCHAR

STARTCHAR oacute
ENCODING 243
SWIDTH 600 0
DWIDTH 23 0
BBX 18 25 2 0
BITMAP
001000
003000
00E000
01C000
038000
020000
000000
000000
01E000
0FFC00
1C0E00
300300
600180
600180
4000C0
C000C0
C000C0
C000C0
400080
600180
600180
300300
1C0E00
0FFC00
01E000
ENDCHAR

STARTCHAR ocircumflex
ENCODING 244
SWIDTH 600 0
DWIDTH 23 0
BBX 18 25 2 0
BITMAP
004000
00C000
03B000
073800
1C0E00
080400
000000
000000
01E000
0FFC00
1C0E00
300300
600180
600180
4000C0
C000C0
C000C0
C000C0
400080
600180
600180
300300
1C0E00
0FFC00
01E000
ENDCHAR

STARTCHAR ohungarumlaut
ENCODING 245
SWIDTH 600 0
DWIDTH 23 0
BBX 18 25 2 0
BITMAP
008600
038C00
031800
063800
1C7000
086000
000000
000000
01E000
0FFC00
1C0E00
300300
600180
600180
4000C0
C000C0
C000C0
C000C0
400080
600180
600180
300300
1C0E00
0FFC00
01E000
ENDCHAR

STARTCHAR odieresis
ENCODING 246
SWIDTH 600 0
DWIDTH 23 0
BBX 18 23 2 0
BITMAP
0E0E00
0E0E00
0E0E00
000000
000000
000000
01F000
07FC00
1C0600
380300
600180
600080
4000C0
C000C0
C000C0
C000C0
4000C0
600080
300180
380300
1C0600
07FC00
01E000
ENDCHAR

STARTCHAR divide
ENCODING 247
SWIDTH 600 0
DWIDTH 23 0
BBX 17 18 3 2
BITMAP
01C000
01C000
01C000
000000
000000
000000
000000
000000
FFFF80
FFFF80
000000
000000
000000
000000
000000
01C000
01C000
01C000
ENDCHAR

STARTCHAR rcaron
ENCODING 248
SWIDTH 600 0
DWIDTH 23 0
BBX 18 25 3 0
BITMAP
080600
0C0C00
071800
03B000
00E000
004000
000000
000000
3E0F00
7E1F80
0670C0
06C000
068000
070000
060000
060000
060000
060000
060000
060000
060000
060000
060000
FFFE00
7FFE00
ENDCHAR

STARTCHAR uring
ENCODING 249
SWIDTH 600 0
DWIDTH 23 0
BBX 19 26 2 0
BITMAP
01F000
011800
020800
020800
020800
011800
00E000
000000
000000
F81F80
F81F80
180180
180180
180180
180180
180180
180180
180180
180180
180180
180180
180380
080780
0C1F80
07F9E0
01C1E0
ENDCHAR

STARTCHAR uacute
ENCODING 250
SWIDTH 600 0
DWIDTH 23 0
BBX 19 25 2 0
BITMAP
001800
003000
00E000
01C000
030000
000000
000000
000000
F81F80
F81F80
180180
180180
180180
180180
180180
180180
180180
180180
180180
180180
180380
080780
0C1F80
07F9E0
01C1E0
ENDCHAR

STARTCHAR uhungarumlaut
ENCODING 251
SWIDTH 600 0
DWIDTH 23 0
BBX 19 25 2 0
BITMAP
00C600
018C00
031C00
063800
0C3000
000000
000000
000000
F81F80
F81F80
180180
180180
180180
180180
180180
180180
180180
180180
180180
180180
180380
080780
0C1F80
07F9E0
01C1E0
ENDCHAR

STARTCHAR udieresis
ENCODING 252
SWIDTH 600 0
DWIDTH 23 0
BBX 19 23 2 0
BITMAP
0E0E00
0E0E00
040600
000000
000000
000000
F81F80
F81F80
180180
180180
180180
180180
180180
180180
180180
180180
180180
180180
180380
080780
0C1D80
07F9E0
01C1E0
ENDCHAR

STARTCHAR yacute
ENCODING 253
SWIDTH 600 0
DWIDTH 23 0
BBX 19 32 3 -7
BITMAP
001800
007000
00E000
01C000
030000
000000
000000
000000
FC07E0
FC07E0
200080
300180
100100
180300
080200
0C0600
040400
060C00
020800
031800
011000
01B000
00A000
00E000
004000
00C000
008000
018000
010000
030000
FFE000
FFE000
ENDCHAR

STARTCHAR tcommaaccent
ENCODING 254
SWIDTH 600 0
DWIDTH 23 0
BBX 18 31 4 -9
BITMAP
0C0000
0C0000
0C0000
0C0000
0C0000
FFFE00
7FFE00
0C0000
0C0000
0C0000
0C0000
0C0000
0C0000
0C0000
0C0000
0C0000
0C0000
0C0000
0C0040
060380
03FF00
00F800
000000
000000
03C000
03C000
03C000
00C000
018000
018000
030000
ENDCHAR

STARTCHAR dotaccent
ENCODING 255
SWIDTH 600 0
DWIDTH 23 0
BBX 4 4 9 19
BITMAP
60
F0
F0
60
ENDCHAR
ENDFONT
